<svg xmlns="http://www.w3.org/2000/svg" width="24" height="24" fill="none"><g fill-rule="evenodd" clip-path="url(#B)"><path fill="#fff" d="M12.71 22.004c10.2-5.914 8.992-11.965 8.9-18.54a2.05 2.05 0 0 0-2.054-2.01H3.813a2.05 2.05 0 0 0-2.054 2.005C1.644 10.033.45 16.085 10.652 22c.313.18.667.278 1.03.28s.717-.094 1.03-.274z"/><path fill="url(#A)" d="M13.74 16.547c.001.257-.066.51-.194.73s-.313.406-.536.532a1.44 1.44 0 0 1-.731.189c-.257-.004-.507-.075-.727-.208a1.43 1.43 0 0 1-.522-.545 1.45 1.45 0 0 1-.175-.735 1.46 1.46 0 0 1 .22-.723c.137-.217.33-.393.556-.512a1.97 1.97 0 0 1 .485-.148h.225c.188 0 .374.038.547.11a1.44 1.44 0 0 1 .462.312c.132.134.236.292.307.466a1.43 1.43 0 0 1 .105.548l-.022-.017zM7.282 4.984c-.286 0-.566.085-.803.245a1.43 1.43 0 0 0-.531.65 1.44 1.44 0 0 0-.08.835c.058.28.197.538.4.74a1.44 1.44 0 0 0 .743.39 1.43 1.43 0 0 0 .835-.088 1.45 1.45 0 0 0 .879-1.345 1.45 1.45 0 0 0-.105-.556c-.072-.177-.178-.337-.312-.473a1.44 1.44 0 0 0-.47-.315 1.45 1.45 0 0 0-.556-.11v.028zm8.353 2.753a1.46 1.46 0 0 0-.803.24c-.238.16-.424.384-.534.647s-.14.554-.084.834a1.44 1.44 0 0 0 1.132 1.136c.28.057.57.028.834-.08s.5-.295.65-.532a1.44 1.44 0 0 0 .243-.802 1.43 1.43 0 0 0-.092-.565 1.45 1.45 0 0 0-.305-.485c-.133-.14-.292-.25-.47-.328a1.44 1.44 0 0 0-.56-.12l-.01.055zM13.163 23.48c-.355.203-.756.3-1.165.3a2.34 2.34 0 0 1-1.164-.31C-.724 16.78.63 9.923.78 2.484A2.32 2.32 0 0 1 3.103.21H20.9c.608 0 1.192.238 1.626.663s.685 1.004.698 1.61c.12 7.44 1.486 14.295-10.07 20.996zM18.03 9.13c.002-.413-.104-.82-.306-1.18s-.495-.663-.85-.878-.757-.334-1.17-.347a2.39 2.39 0 0 0-1.19.273 2.41 2.41 0 0 0-1.282 1.983c-.024.413.058.825.24 1.197a2.4 2.4 0 0 0 .797.925l-1.322 3.138c-.196-.06-.4-.09-.606-.088h-.055a2.55 2.55 0 0 0-.644.094L8.747 8.288c.446-.348.753-.843.868-1.397s.03-1.13-.24-1.628-.708-.882-1.236-1.086a2.38 2.38 0 0 0-1.645-.03c-.534.184-.986.553-1.274 1.04a2.38 2.38 0 0 0 .516 3.045 2.39 2.39 0 0 0 1.546.563 2.52 2.52 0 0 0 .611-.083l2.902 5.958a2.36 2.36 0 0 0-.892 1.855c-.003.407.097.81.3 1.166a2.42 2.42 0 0 0 .82.88 2.41 2.41 0 0 0 1.143.371c.406.025.812-.053 1.18-.228a2.39 2.39 0 0 0 .92-.772c.237-.33.386-.717.433-1.12s-.01-.814-.166-1.2-.403-.707-.72-.96l1.35-3.194c.16.03.322.044.484.044.635 0 1.245-.252 1.694-.7a2.4 2.4 0 0 0 .701-1.694v.005z"/></g><defs><linearGradient id="A" x1="-14.099" x2="29.434" y1="-19.414" y2="26.514" gradientUnits="userSpaceOnUse"><stop offset=".15" stop-color="#00ab98"/><stop offset=".74" stop-color="#48bfb0"/></linearGradient><clipPath id="B"><path fill="#fff" d="M0 0h24v24H0V0z"/></clipPath></defs></svg>